<?xml version="1.0" encoding="UTF-8" standalone="no"?>
<!-- Created with Inkscape (http://www.inkscape.org/) -->

<svg
   version="1.1"
   id="svg1"
   width="705.26843"
   height="705.26843"
   viewBox="0 0 705.26843 705.26843"
   sodipodi:docname="logo-cute.svg"
   inkscape:version="1.4.2 (ebf0e940, 2025-05-08)"
   xmlns:inkscape="http://www.inkscape.org/namespaces/inkscape"
   xmlns:sodipodi="http://sodipodi.sourceforge.net/DTD/sodipodi-0.dtd"
   xmlns="http://www.w3.org/2000/svg"
   xmlns:svg="http://www.w3.org/2000/svg">
  <defs
     id="defs1" />
  <sodipodi:namedview
     id="namedview1"
     pagecolor="#ffffff"
     bordercolor="#000000"
     borderopacity="0.25"
     inkscape:showpageshadow="2"
     inkscape:pageopacity="0.0"
     inkscape:pagecheckerboard="0"
     inkscape:deskcolor="#d1d1d1"
     inkscape:zoom="0.72250868"
     inkscape:cx="316.95121"
     inkscape:cy="321.10341"
     inkscape:window-width="1512"
     inkscape:window-height="945"
     inkscape:window-x="0"
     inkscape:window-y="37"
     inkscape:window-maximized="0"
     inkscape:current-layer="g1" />
  <g
     inkscape:groupmode="layer"
     id="layer1"
     inkscape:label="Image 1"
     transform="translate(9.3276367,36.708649)">
    <circle
       style="display:inline;fill:#c8b7b7;stroke-width:1.38467;fill-opacity:1"
       id="path1"
       cx="343.30658"
       cy="-315.92557"
       r="352.63422"
       transform="scale(1,-1)" />
  </g>
  <g
     inkscape:groupmode="layer"
     inkscape:label="Image"
     id="g1"
     transform="translate(9.3276367,36.708649)">
    <g
       id="g2"
       style="display:inline">
      <path
         style="display:inline;fill:#fde3d8"
         d="m 281.5,451.96557 c -40.77139,36.65891 -78.26088,17.37748 -125.76067,8.24598 C 87.247974,448.8282 123.75562,394.36729 107.2217,393.50257 59.932046,391.02933 50.633066,308.20564 95.832503,269.95088 c 6.429897,-38.05826 46.820317,-45.21133 47.555377,-48.09277 15.43074,-45.73999 56.56165,-64.39385 101.37635,-57.3029 5.61805,-9.95463 40.95698,-70.333648 118.20964,-30.34597 15.04212,-6.68743 104.5772,-42.622333 143.39907,30.5577 78.77781,19.21745 63.72596,83.23303 69.60922,83.23303 14.73453,0 46.75685,26.7846 38.80135,68.94715 30.75207,34.93619 10.83615,90.45068 -58.0136,99.57498 C 545.73288,447.00351 325.29073,503.38448 281.5,451.96557 Z"
         id="path5"
         sodipodi:nodetypes="csscscccsccc" />
      <g
         id="g6"
         style="display:inline">
        <path
           style="display:inline;fill:#f5b2b1"
           d="m 281.30239,447.93829 c -31.36128,34.10672 -83.68548,27.99558 -122.40656,11.37018 -21.88277,-7.63529 -47.77836,-26.3579 -40.0247,-52.99537 C 127.67339,382.24586 85.448021,392.2783 79.345699,370.57345 55.0632,341.1578 63.005002,289.22279 100.10938,274.32383 c 10.11159,-22.55295 34.17239,-35.26129 46.89515,-54.13244 9.07872,-31.61951 36.94747,-59.6183 71.48473,-58.50206 16.53899,2.52313 29.30425,5.37009 35.57731,-13.78763 26.89407,-29.21153 74.7431,-34.28491 108.05998,-13.34204 25.75497,-10.59707 54.08513,-18.89935 82.19807,-12.55736 25.64661,4.57793 50.24363,19.83677 61.75383,43.79841 37.40767,6.0088 73.32364,42.24907 66.74434,81.86669 28.06381,7.18287 48.05967,36.90997 42.41855,65.46717 6.48475,16.66752 19.02436,33.23591 10.29684,52.27932 -9.30856,28.99718 -38.68483,49.75372 -69.03818,49.60778 -10.83706,34.87637 -47.16919,59.11098 -83.62882,53.25438 -18.43626,-8.1624 -30.73102,-5.64711 -44.89262,8.58881 -46.79302,26.20461 -114.83357,15.86158 -146.67617,-28.92657 z m 244.455,-58.81422 c -7.54072,-10.00419 -12.03164,-23.00344 7.04227,-15.78363 18.67339,10.36019 48.69386,19.45143 63.83355,-1.19945 7.35187,-12.90368 14.58719,-54.32484 -8.54634,-39.15069 1.56692,-22.91016 20.34953,-42.55428 -2.6434,-60.93564 -14.9148,-13.04312 -35.75417,6.09657 -19.21536,20.32755 11.81893,9.18096 -5.32903,43.23482 -7.42039,18.11779 1.33464,-17.18467 -13.52024,-28.03938 -27.56083,-29.72057 20.38465,-14.58013 31.21314,-46.4315 10.68987,-66.10501 -14.99034,-19.83628 -43.99475,-27.33049 -59.83936,-42.38124 12.62651,-15.16509 -25.08026,-31.6838 -39.90765,-34.54659 -21.94159,-4.47039 -47.17936,-2.97787 -65.85573,10.10744 2.42105,22.50048 23.73222,21.25663 37.20674,34.06908 10.62759,3.98048 26.68772,40.84533 5.8152,30.72154 -2.65018,-26.35391 -33.74256,-37.50027 -56.25905,-36.12875 -10.66461,0.6496 -34.65743,5.72058 -11.35349,-6.90108 2.93722,-1.59083 23.51855,-9.66789 6.12378,-19.05159 -31.10997,-23.98517 -84.01842,-14.39662 -100.88829,22.24617 11.30806,12.4225 26.9213,12.36678 41.83187,17.51444 13.00059,2.404 27.53465,28.8307 6.51938,13.40454 -31.46245,-19.48955 -72.42753,4.51717 -84.74285,35.83878 -5.12919,9.25103 3.01487,41.59596 -13.71325,19.91758 -9.85744,-26.58969 15.57577,-50.8743 36.56436,-64.23317 23.36048,-6.27238 1.32039,-14.91082 -11.88563,-16.81197 -33.25073,-6.79166 -65.97714,17.91803 -73.63245,50.02898 10.72263,0.21506 34.81174,-0.90457 12.89235,10.4617 -23.58345,21.23926 -7.47541,53.43116 13.93186,64.98619 -26.82851,10.08377 -46.22859,-31.32571 -34.79972,-54.33204 7.32747,-21.5057 -31.62726,0.49636 -33.82705,13.35171 -13.34501,19.57663 17.50484,33.95471 12.97337,50.53889 -6.54051,15.02745 -33.637709,-17.49415 -35.265203,-15.20557 -13.969338,19.64366 -11.527258,44.39477 13.254743,63.5135 32.47179,25.05122 58.98933,0.24039 88.22583,2.45444 -2.45787,14.79477 -28.03245,39.24495 -8.43552,59.06192 14.09351,22.27947 -21.83178,25.32684 -26.58019,4.31489 -1.39262,-13.23254 -36.67853,-28.74728 -26.35313,-7.5156 23.43107,19.58982 53.11701,34.227 83.4363,35.95533 45.76036,2.60853 -15.51781,-23.83996 -10.246,-50.77658 9.89071,-50.53704 25.86064,19.92399 58.67499,23.05421 63.08313,6.01761 8.11526,-25.14473 26.41152,-27.84591 13.9881,-2.06514 38.27678,21.23153 57.29824,13.53645 28.13463,-6.92109 1.47842,15.85061 -21.41706,18.11644 -19.46582,1.92642 -25.34126,13.46956 -5.46666,16.94121 137.02405,40.07715 122.39896,-67.9411 138.31862,-28.62563 19.2966,47.65522 85.86295,-3.39901 64.80976,-31.33006 z M 258.42911,336.99069 c -30.58724,-5.26851 0.25156,-28.52767 16.1065,-16.55665 18.37776,9.93486 -6.30474,19.7729 -16.1065,16.55665 z m 221.65647,-2.02239 c -36.18082,-11.83274 25.84036,-33.29721 23.81514,-6.36174 -5.28886,7.07979 -15.814,7.77852 -23.81514,6.36174 z M 440,292.32761 C 0,0 0,0 440,292.32761 Z"
           id="path4"
           sodipodi:nodetypes="sssssscsssscsscsssscccsssssssssssssssscsssssssscsssssssssscscsssssssscc" />
      </g>
      <a
         id="a3" />
      <path
         style="display:inline;fill:#cf445b"
         d="m 285.59304,457.64539 c -3.33526,-5.3599 -5.44898,-6.01569 -10.95285,1.4617 -38.40818,52.18024 -181.101265,3.29587 -169.15101,-56.69816 2.13259,-7.02989 3.85076,-4.76607 -3.43608,-5.95533 -69.703655,-11.37609 -41.314275,-112.57509 -5.38177,-127.69478 0.410718,-22.45733 19.98499,-36.75011 38.12573,-44.64624 7.65119,-3.33034 9.53406,-1.80149 9.87163,-6.12705 2.86428,-36.70208 53.85524,-65.45161 93.06896,-55.32144 3.04808,0.78742 7.49129,-2.29405 11.24265,-8.04355 21.32489,-32.68345 68.16029,-50.54668 114.47547,-21.30921 46.83294,-27.68914 120.5947,-20.39076 141.26436,28.52268 3.5371,8.37033 73.71986,-6.79613 70.35162,83.42355 56.77221,10.22432 36.67615,69.14589 41.80555,73.15318 31.51275,24.61901 14.82299,89.94296 -59.80732,98.39809 -11.88815,44.14925 -60.76339,64.71921 -108.401,46.47676 -59.22775,51.43114 -141.97626,28.26791 -163.07594,-5.6402 z m 101.68807,14.86482 c 24.45381,-4.26439 48.66014,-18.94192 60.6253,-36.76021 3.41498,-5.08552 4.98062,-5.72011 7.61442,-3.08631 1.6164,1.6164 1.59802,3.07568 -0.11448,9.09047 -1.92851,6.77349 27.91408,11.63964 44.8378,7.31128 35.00784,-8.9535 52.62961,-48.85835 31.08817,-70.39979 -5.24973,-5.24973 -3.22013,-6.61823 3.30166,-2.22621 8.84412,5.64973 14.1443,14.51927 18.86602,23.55581 42.6434,0.0203 67.39564,-40.20607 53.99361,-64.83004 -4.1445,-7.6148 -4.48849,-7.74993 -10.74278,-4.22023 -8.96937,5.062 -12.6153,3.08113 -6.70942,-3.64529 16.84008,-19.17979 11.2888,-55.72844 -13.19612,-62.5217 -9.70739,-2.69328 -25.83897,10.81575 -18.74844,17.69425 10.58581,10.26926 13.43296,31.96238 4.80125,36.58193 -2.46894,1.32133 -2.66041,0.70702 -3.1376,-10.06693 -0.66596,-15.0359 -13.86503,-24.43456 -25.02841,-25.02164 -6.93429,-0.36468 -6.25551,-0.42312 -2.62349,-5.25386 59.02287,-78.50292 -66.03605,-95.38779 -63.87863,-98.84016 7.1831,-12.52818 26.33633,-5.3981 17.43071,-17.54648 -21.22199,-28.82803 -80.4308,-38.8823 -111.97692,-14.57833 4.84236,6.38894 7.95245,13.8413 11.29383,21.07328 28.79361,4.86462 43.01957,30.0229 43.02162,40.86219 10e-4,7.8569 -5.57724,6.46815 -8.41329,-1.8552 -13.79125,-40.47447 -64.80915,-29.81046 -75.58425,-31.21115 -6.91716,-3.07557 31.47755,-4.98714 26.56343,-14.48999 -18.85486,-36.46128 -92.95234,-32.57009 -112.5846,5.91233 -2.61904,5.13373 -2.58348,5.29696 1.78308,8.18662 4.59857,3.12034 8.5972,6.99789 12.64794,10.77515 15.07645,-0.93003 28.81141,3.87493 39.60259,14.63113 5.5815,6.05522 4.54969,6.40271 -4.72778,1.59224 -52.84356,-27.39998 -95.57896,27.12445 -89.27543,56.82798 1.73424,8.17212 0.35439,9.67604 -4.32524,4.71418 -16.07798,-17.04762 3.17195,-55.20201 36.06434,-71.48144 8.68855,-4.30022 8.81012,-4.91598 1.80834,-9.15951 -29.69795,-17.99884 -73.69464,-5.20761 -90.19912,27.76733 -7.22486,14.43483 -5.71581,21.68811 3.1497,19.31695 11.90466,-3.18401 17.07546,-1.22031 9.57846,3.63758 -23.27607,15.08238 -19.40985,55.43283 6.22771,64.99649 6.84052,2.55174 7.2879,5.50527 0.90371,5.96609 -17.71801,1.27891 -45.13968,-26.2347 -25.36079,-64.81464 -14.40024,-7.70678 -35.62912,6.91572 -41.60383,19.11767 -8.60439,17.57247 -4.6539,35.88088 10.41238,47.011 10.02614,7.40674 0.8657,9.58157 -10.75279,2.55287 -6.52,-3.94432 -10.65724,-9.0066 -12.97894,-15.88088 -2.387055,-7.06775 -3.574702,-7.00389 -10.662888,0.57341 -47.724236,51.01736 22.501138,110.331 85.517588,78.99682 31.66133,-15.74322 -2.76989,16.63766 -1.06532,24.21629 -1.80721,3.84976 -1.53736,27.16393 7.60962,32.29632 6.15717,3.4548 1.12535,7.6686 -5.87104,4.78438 -28.30356,-13.9998 16.78144,-38.18639 -54.96279,-35.89176 -13.88505,40.11949 78.31588,93.58412 136.36235,51.23671 4.76747,-3.47808 4.61338,-4.15658 -1.36235,-5.99862 -18.49323,-5.70063 -44.74174,-36.21431 -39.52975,-45.95301 2.23072,-4.16813 5.04989,-2.19136 12.11943,8.498 8.37299,14.87618 22.59833,22.66389 37.22246,29.94642 49.38495,0 38.62166,-14.69645 38.12209,-14.96548 -6.73396,-3.62648 -12.26559,-12.10316 -9.62278,-14.74597 0.75336,-0.75336 2.73588,0.044 6.77474,2.72488 13.50816,8.96621 30.14833,11.32701 46.797,6.63927 8.85934,-2.49451 10.00238,-2.25647 6.5927,1.37296 -9.53835,9.40563 -24.02126,8.25433 -36.47589,8.7147 -10.35528,12.37535 -27.44114,11.15787 -13.32607,24.21433 20.43975,18.92408 51.78335,27.34355 82.10718,22.05552 z M 364.5,353.9293 C 341.8768,350.82471 320,339.24944 320,330.38384 c 0,-6.57549 4.38191,-7.02775 12.02691,-1.24129 26.16906,19.80722 65.90739,18.9118 93.3253,-2.10288 8.59963,-6.59125 12.64779,-6.52404 12.64779,0.20999 0,17.13062 -39.25375,31.37927 -73.5,26.67964 z m -94.75,-57.0094 c -6.37132,-3.71095 3.26768,-20.39044 13.86929,-23.99968 C 297.88305,268.06425 316,278.60516 316,291.76016 c 0,7.28483 -7.00162,7.43141 -10.1075,0.2116 -5.10862,-11.87531 -19.73967,-12.96219 -26.54291,-1.97176 -4.52726,7.31363 -6.49198,8.72992 -9.59959,6.9199 z m 160.28402,-1.37891 c -3.62163,-4.36379 3.06858,-17.46903 11.99588,-23.49834 11.75006,-7.93575 29.02235,-3.51122 35.54688,9.10582 4.95989,9.59137 -1.87352,14.6189 -8.09657,5.95687 -8.78287,-12.22512 -21.59835,-10.93383 -29.43921,2.9663 -3.85482,6.83376 -7.30818,8.72121 -10.00698,5.46935 z"
         id="path3"
         sodipodi:nodetypes="sssscsssscscsccsssssssscssssssssssscccccssscssssssssssscsssssscsccsssscssssscssssssssssssssssssss" />
      <path
         style="display:inline;fill:#4d3435"
         d="m 358.11298,352.45536 c -24.40488,-5.29457 -41.82811,-17.13641 -36.7088,-24.94946 2.23933,-3.41766 3.47831,-3.19248 10.24674,1.86232 26.86329,20.06206 67.77161,19.03998 94.43581,-2.35945 6.90693,-5.54318 7.85397,-5.83676 10.25828,-3.18003 14.418,15.93171 -41.84713,36.52021 -78.23203,28.62662 z m -89.1919,-57.60283 c -2.71678,-5.07634 3.99655,-16.13763 12.30799,-20.27939 13.42492,-6.68992 29.65927,0.30901 33.95216,14.63742 2.42035,8.07839 -5.68175,10.57748 -8.82488,2.72204 -5.81707,-14.5383 -19.58723,-13.4221 -30.65303,2.48471 -2.18594,3.14223 -5.22899,3.3375 -6.78224,0.43522 z m 161.65035,0.57604 c -5.43756,-5.43756 6.36164,-22.41394 18.16436,-26.13442 12.29372,-3.87525 27.45557,4.41264 29.83474,16.30852 1.06002,5.30008 -3.18241,8.14199 -6.33032,4.24055 -6.18306,-7.66316 -8.7501,-9.90343 -12.50719,-10.91511 -8.32319,-2.2412 -15.55864,1.82551 -20.42839,11.48187 -3.48661,6.9137 -5.615,8.13679 -8.7332,5.01859 z"
         id="path2" />
    </g>
  </g>
</svg>
